<?xml version="1.0" encoding="utf-8"?>
<!-- Generator: Adobe Illustrator 25.4.1, SVG Export Plug-In . SVG Version: 6.00 Build 0)  -->
<svg version="1.1" id="Laag_1" xmlns="http://www.w3.org/2000/svg" xmlns:xlink="http://www.w3.org/1999/xlink" x="0px" y="0px"
	 viewBox="0 0 169 67" style="enable-background:new 0 0 169 67;" xml:space="preserve">
<style type="text/css">
	.st0{fill-rule:evenodd;clip-rule:evenodd;fill:#0080FF;}
</style>
<g>
	<path class="st0" d="M46.4,20.8h-1.2v7.6h1.2c2.1,0,3.8-1.7,3.8-3.8S48.5,20.8,46.4,20.8 M46.4,32.8h-1.2v5.7h-4.4v-22h5.6
		c4.5,0,8.2,3.7,8.2,8.2C54.6,29.2,50.9,32.8,46.4,32.8 M57.4,38.5v-22h11.7v4.4h-7.4v4.4h7.4v4.3h-7.4v4.5h7.4v4.4H57.4z M77.9,27
		v11.5h-4.4V16.3l10.9,11.3V16.5h4.4v21.8L77.9,27z M93.3,38.5v-22h4.4v17.7h7.4v4.4H93.3z M114.3,39c-3.8,0-6.9-3.1-6.9-6.9V16.5
		h4.4v15.6c0,1.4,1.1,2.6,2.5,2.6c1.4,0,2.6-1.2,2.6-2.6V16.5h4.3v15.6C121.2,35.9,118.1,39,114.3,39 M50.9,53.7l-10-10v22.7h4.4
		V54.4l4.6,4.6l1,1l1-1l4.6-4.6v11.9h4.4V43.7L50.9,53.7z M143.6,53.7l-10-10v22.7h4.4V54.4l4.6,4.6l1,1l1-1l4.6-4.6v11.9h4.4V43.7
		L143.6,53.7z M72.3,66.8c-3.8,0-6.9-3.1-6.9-6.9V44.3h4.4v15.6c0,1.4,1.1,2.6,2.5,2.6c1.4,0,2.6-1.2,2.6-2.6V44.3h4.3v15.6
		C79.2,63.7,76.1,66.8,72.3,66.8 M99.2,66.3V44.3h11.7v4.4h-7.4v4.4h7.4v4.3h-7.4v4.5h7.4v4.4H99.2z M122.3,66.8
		c-3.8,0-6.9-3.1-6.9-6.9V44.3h4.4v15.6c0,1.4,1.1,2.6,2.5,2.6s2.6-1.2,2.6-2.6V44.3h4.3v15.6C129.2,63.7,126.1,66.8,122.3,66.8
		 M26.6,34.5c3.9,0,7-3.2,7-7c0-3.9-3.1-7-7-7c-3.9,0-7.1,3.2-7.1,7C19.5,31.4,22.7,34.5,26.6,34.5 M26.6,39
		c-6.3,0-11.5-5.1-11.5-11.5c0-6.3,5.1-11.5,11.5-11.5C32.9,16,38,21.2,38,27.5C38,33.8,32.9,39,26.6,39 M135.6,20.6L135.6,20.6
		l0.1-4.2l0-0.1h-0.1c-6.1,0-11.1,5-11.1,11.1c0,6.1,5,11.1,11.1,11.1l0.1,0v-4.2l0-0.1h-0.1c-3.8,0-6.8-3-6.8-6.8
		C128.7,23.7,131.8,20.6,135.6,20.6 M149.3,38.5v-8.9h-5.1v8.9h-4.4v-22h4.4v8.8h5.1v-8.8h4.3v22H149.3z M165,20.8v17.7h-4.4V20.8
		h-3.7v-4.4h11.7v4.4H165z M49.7,10.7V0.9h5.2v2h-3.3v2h3.3v1.9h-3.3v2h3.3v2H49.7z M59.3,2.8h-0.5v5.9h0.5c1.6,0,3-1.3,3-3
		C62.3,4.2,61,2.8,59.3,2.8 M59.3,10.7h-2.5V0.9h2.5c2.7,0,4.9,2.2,4.9,4.9C64.3,8.5,62.1,10.7,59.3,10.7 M65.4,10.7V0.9h5.2v2h-3.3
		v2h3.3v1.9h-3.3v2h3.3v2H65.4z M75,2.8h-0.5v3.4H75c0.9,0,1.7-0.8,1.7-1.7C76.7,3.6,76,2.8,75,2.8 M76.7,7.7l2.6,3h-2.6l-2.2-2.5
		v2.5h-2V0.9H75c2,0,3.6,1.6,3.6,3.6C78.7,5.9,77.9,7.1,76.7,7.7 M80.2,10.7V0.9h2v7.9h3.3v2H80.2z M89.4,8.4h1.9l-0.9-2.4L89.4,8.4
		z M91.9,9.9h-3l-0.3,0.8h-2.1l3.9-10.1l3.9,10.1h-2.1L91.9,9.9z M106.7,2.8h-0.5v5.9h0.5c1.7,0,3-1.3,3-3
		C109.6,4.2,108.3,2.8,106.7,2.8 M106.7,10.7h-2.5V0.9h2.5c2.7,0,4.9,2.2,4.9,4.9C111.6,8.5,109.4,10.7,106.7,10.7 M89.1,48.2
		C89.1,48.2,89.1,48.2,89.1,48.2c1,0,1.8,0.6,2.3,1.4l3-3.1c-0.6-0.8-2.3-2.7-5.3-2.7h0c-3.5,0-6.4,2.7-6.4,6
		c0,6.2,8.4,6.5,8.4,10.2c0,1.3-1.2,2.3-2.7,2.3c-1.5,0-2.6-1.2-2.9-2l-1.5,1.5v0l-1.7,1.7c0,0,0.3,0.5,0.9,1.1
		c1.5,1.6,3.6,2.1,5.1,2.1c0.1,0,0.2,0,0.2,0c0,0,0.1,0,0.1,0l0,0c3.8-0.2,6.8-3.1,6.8-6.7c0-6.6-8.4-7.3-8.4-10.2
		C87.1,49,88,48.2,89.1,48.2L89.1,48.2z M115.4,2.6c0.4,0,0.8,0.3,1,0.6l1.4-1.4c-0.3-0.4-1-1.2-2.4-1.2c-1.6,0-2.9,1.2-2.9,2.7
		c0,2.8,3.8,2.9,3.8,4.6c0,0.6-0.5,1.1-1.2,1.1c-0.7,0-1.2-0.5-1.3-0.9l-0.7,0.7l-0.8,0.8c0,0,0.1,0.2,0.4,0.5c0.7,0.7,1.6,1,2.3,1
		c0,0,0.1,0,0.1,0c0,0,0,0,0,0c1.7-0.1,3-1.4,3-3c0-3-3.8-3.3-3.8-4.6C114.5,2.9,114.9,2.6,115.4,2.6z M42.8,5.6v5.1h-1.9V0.8
		l4.8,5.1v-5h1.9v9.7L42.8,5.6z M97.3,5.6v5.1h-1.9V0.8l4.8,5.1v-5h1.9v9.7L97.3,5.6z M0,38.5l11-11l-11-11V38.5z M15.6,0.9l11,11
		l11-11H15.6z M0,38.5l15.6,15.6V38.5H0z M15.6,54.1h22l-11-11L15.6,54.1z"/>
	<path class="st0" d="M0,16.5h15.6V0.9L0,16.5z M0,3.8c0,1.6,1.3,2.9,2.9,2.9s2.9-1.3,2.9-2.9c0-1.6-1.3-2.9-2.9-2.9
		C1.3,0.9,0,2.2,0,3.8 M0,51.2c0,1.6,1.3,2.9,2.9,2.9s2.9-1.3,2.9-2.9c0-1.6-1.3-2.9-2.9-2.9S0,49.6,0,51.2"/>
</g>
</svg>
